<svg width="18" height="19" viewBox="0 0 18 19" fill="none" xmlns="http://www.w3.org/2000/svg">
<path d="M18 18.25H14V11.5C14 10.4414 12.8121 9.5558 11.7535 9.5558C10.6949 9.5558 10 10.4414 10 11.5V18.25H6.00001V6.25H10V8.25C10.6623 7.17857 12.3564 6.48727 13.5251 6.48727C15.9965 6.48727 18 8.5286 18 11V18.25ZM4 18.25H0V6.25H4V18.25ZM2.00001 0.25C3.10457 0.25 4.00001 1.14543 4.00001 2.25C4.00001 3.35457 3.10457 4.25 2.00001 4.25C0.89544 4.25 1.33514e-05 3.35457 1.33514e-05 2.25C1.33514e-05 1.14543 0.89544 0.25 2.00001 0.25Z" fill="black"/>
</svg>
